# xmcd
#
# Track frame offsets: 
#        151
#        15492
#        30899
#        49847
#        65948
#        81190
#        98271
#        113417
#        124670
#        138667
#        152759
#        167284
#
# Disc length: 2484 seconds
#
# Revision: 8
# Processed by: cddbd v1.5.2PL0 Copyright (c) Steve Scherf et al.
# Submitted via: ExactAudioCopy v0.95b4
#
DISCID=8709b20c
DTITLE=Katie Melua - Call Off The Search
DYEAR=2003
DGENRE=Pop
TTITLE0=Call Of The Search
TTITLE1=Crawling Up A Hill
TTITLE2=The Closest Thing To Crazy
TTITLE3=My Aphrodisiac Is You
TTITLE4=Learnin' The Blues
TTITLE5=Blame It On The Moon
TTITLE6=Belfast (Penguins And Cats)
TTITLE7=I Think It's Going To Rain Today
TTITLE8=Mockingbird Song
TTITLE9=Tiger In The Night
TTITLE10=Faraway Voice
TTITLE11=Lilac Wine
EXTD=
EXTT0=
EXTT1=
EXTT2=
EXTT3=
EXTT4=
EXTT5=
EXTT6=
EXTT7=
EXTT8=
EXTT9=
EXTT10=
EXTT11=
PLAYORDER=
